<?xml version="1.0" encoding="UTF-8" standalone="no"?>
<svg xmlns="http://www.w3.org/2000/svg" version="1.1" xml:space="preserve" height="512" width="512" enable-background="new 0 0 100 100" y="0px" x="0px" viewBox="0 0 512 512"><style type="text/css">
	.st0{fill:#010202;}
</style><g style="fill:#fff" transform="matrix(3.37 0 0 3.083 87.82 101.7)"><g style="fill:#fff"><path style="fill:#fff" d="m77.76 7.521h-56.3l-7.5 52.92h71.3zm-1.31 44.4c-0.483 0.512-1.045 0.858-1.427 1.059-0.123 0.072-0.314 0.164-0.556 0.253-0.059 0.024-0.12 0.046-0.165 0.062-3.729 1.243-15.63 1.683-24.69 1.683-8.973 0-20.77-0.431-24.56-1.645l-0.15-0.06c-0.05-0.02-0.11-0.04-0.19-0.07-0.2-0.08-0.37-0.16-0.51-0.24-0.36-0.19-0.94-0.55-1.46-1.11-0.002 0-0.025-0.024-0.049-0.048-0.047-0.051-0.094-0.104-0.139-0.162l-0.09-0.113c-0.06-0.09-0.13-0.2-0.19-0.31l-0.02-0.05c-0.05-0.08-0.1-0.19-0.15-0.3-0.01-0.04-0.03-0.07-0.04-0.11-0.04-0.11-0.07-0.19-0.11-0.28l-0.05-0.17c-0.02-0.08-0.05-0.17-0.08-0.26l-0.04-0.18c-0.023-0.085-0.043-0.18-0.064-0.273l-0.04-0.2-0.06-0.3-0.04-0.21c-0.02-0.12-0.04-0.24-0.05-0.35l-0.03-0.21c-0.01-0.13-0.03-0.26-0.04-0.4l-0.02-0.154c-0.02-0.21-0.04-0.4-0.05-0.61v-0.05c-0.02-0.22-0.03-0.4-0.04-0.58l-0.03-0.91c-0.004-0.145-0.008-0.286-0.008-0.43l-0.004-0.707 0.07-2.564c0.012-0.264 0.027-0.527 0.043-0.797l0.006-0.088c0.018-0.268 0.031-0.492 0.047-0.722l0.439-4.56 0.107-0.864c0.033-0.283 0.072-0.572 0.111-0.862l0.879-5.468 0.156-0.82c0.053-0.271 0.105-0.536 0.16-0.8l0.939-4.078 0.369-1.342c0.061-0.203 0.121-0.41 0.184-0.611l0.059-0.189c0.049-0.152 0.09-0.281 0.129-0.406l0.279-0.805c0.037-0.098 0.072-0.199 0.109-0.293l0.088-0.227c0.033-0.09 0.07-0.184 0.109-0.274l0.086-0.212c0.029-0.072 0.061-0.141 0.094-0.211l0.312-0.654c0.051-0.102 0.104-0.194 0.158-0.289l0.051-0.093c0.066-0.11 0.135-0.217 0.203-0.317 0.023-0.034 0.043-0.064 0.066-0.09l0.041-0.056c0.029-0.044 0.061-0.087 0.09-0.124l0.061-0.07c0.033-0.041 0.053-0.062 0.076-0.084 0.045-0.052 0.09-0.098 0.135-0.143 0.023-0.022 0.051-0.048 0.08-0.072 0.535-0.532 1.086-0.885 1.453-1.082 0.096-0.061 0.25-0.138 0.453-0.225 0.168-0.072 0.277-0.112 0.277-0.112 3.326-1.222 13.17-1.66 20.59-1.66 7.464 0 17.34 0.441 20.62 1.683 0.039 0.016 0.102 0.037 0.192 0.079 0.198 0.08 0.378 0.171 0.525 0.265 0.323 0.176 0.858 0.521 1.396 1.055 2.891 2.43 5.283 18.09 5.408 27.04 0.103 7.108-1.113 8.191-1.513 8.547z"/><path style="fill:#fff" d="m22.24 73.68h54.74l7.9-10.63h-70.55zm40.75-7.455h12.07v4.219h-12.07z"/><path style="fill:#fff" d="m80.74 77.36h-61.68l-14.94 7.66v7.541h91.56v-7.54zm2.242 9.41-11.03-0.008h-55.13c-3.68-0.24-7.352-0.42-11.02-0.72 3.669-0.29 7.34-0.47 11.02-0.72h55.12l11.03-0.004c3.675 0.237 7.351 0.421 11.02 0.725-3.674 0.302-7.35 0.487-11.02 0.726z"/></g></g><g style="fill:#fff" transform="matrix(1.434 0 0 1.312 184.3 146)"><path style="fill:#fff" d="m60.5 31v-4h3v-5.5h-27v5.5h3v4a28 28 0 1 0 21 0zm-10.5 48a22 22 0 0 1 -22 -22c0-12.15 5.85 3 18 3s26-15.15 26-3a22 22 0 0 1 -22 22z"/><rect style="fill:#fff" rx="2" ry="2" height="6" width="21" y="13.5" x="39.5"/></g></svg>
